<?xml version="1.0" encoding="UTF-8" standalone="no"?>
<!DOCTYPE svg PUBLIC "-//W3C//DTD SVG 1.1//EN" "http://www.w3.org/Graphics/SVG/1.1/DTD/svg11.dtd">
<svg width="100%" height="100%" viewBox="0 0 1134 1134" version="1.1" xmlns="http://www.w3.org/2000/svg" xmlns:xlink="http://www.w3.org/1999/xlink" xml:space="preserve" xmlns:serif="http://www.serif.com/" style="fill-rule:evenodd;clip-rule:evenodd;stroke-linejoin:round;stroke-miterlimit:2;">
    <g id="Plan-de-travail1" serif:id="Plan de travail1" transform="matrix(1,0,0,1,-354.331,-354.331)">
        <rect x="354.331" y="354.331" width="1133.86" height="1133.86" style="fill:none;"/>
        <g transform="matrix(0.6,0,0,0.5,151.512,189.307)">
            <path d="M614.173,448.819C614.173,409.707 587.712,377.953 555.118,377.953L437.008,377.953C404.414,377.953 377.953,409.707 377.953,448.819L377.953,779.528C377.953,818.64 404.414,850.394 437.008,850.394L555.118,850.394C587.712,850.394 614.173,818.64 614.173,779.528L614.173,448.819Z"/>
        </g>
        <g transform="matrix(0.6,0,0,0.5,1096.39,756.236)">
            <path d="M614.173,448.819C614.173,409.707 587.712,377.953 555.118,377.953L437.008,377.953C404.414,377.953 377.953,409.707 377.953,448.819L377.953,779.528C377.953,818.64 404.414,850.394 437.008,850.394L555.118,850.394C587.712,850.394 614.173,818.64 614.173,779.528L614.173,448.819Z"/>
        </g>
        <g transform="matrix(2.2,0,0,0.5,-453.213,1039.7)">
            <path d="M614.173,448.819C614.173,409.707 606.956,377.953 598.067,377.953L394.059,377.953C385.17,377.953 377.953,409.707 377.953,448.819L377.953,779.528C377.953,818.64 385.17,850.394 394.059,850.394L598.067,850.394C606.956,850.394 614.173,818.64 614.173,779.528L614.173,448.819Z"/>
        </g>
        <g transform="matrix(2.2,0,0,0.5,-453.213,472.772)">
            <path d="M614.173,448.819C614.173,409.707 606.956,377.953 598.067,377.953L394.059,377.953C385.17,377.953 377.953,409.707 377.953,448.819L377.953,779.528C377.953,818.64 385.17,850.394 394.059,850.394L598.067,850.394C606.956,850.394 614.173,818.64 614.173,779.528L614.173,448.819Z"/>
        </g>
        <g transform="matrix(2.2,0,0,0.5,-75.2598,756.236)">
            <path d="M614.173,448.819C614.173,409.707 606.956,377.953 598.067,377.953L394.059,377.953C385.17,377.953 377.953,409.707 377.953,448.819L377.953,779.528C377.953,818.64 385.17,850.394 394.059,850.394L598.067,850.394C606.956,850.394 614.173,818.64 614.173,779.528L614.173,448.819Z"/>
        </g>
        <g transform="matrix(2.2,0,0,0.5,-264.236,189.307)">
            <path d="M614.173,448.819C614.173,409.707 606.956,377.953 598.067,377.953L394.059,377.953C385.17,377.953 377.953,409.707 377.953,448.819L377.953,779.528C377.953,818.64 385.17,850.394 394.059,850.394L598.067,850.394C606.956,850.394 614.173,818.64 614.173,779.528L614.173,448.819Z"/>
        </g>
        <g transform="matrix(1.4,0,0,0.5,-150.85,756.236)">
            <path d="M614.173,448.819C614.173,409.707 602.832,377.953 588.864,377.953L403.262,377.953C389.293,377.953 377.953,409.707 377.953,448.819L377.953,779.528C377.953,818.64 389.293,850.394 403.262,850.394L588.864,850.394C602.832,850.394 614.173,818.64 614.173,779.528L614.173,448.819Z"/>
        </g>
        <g transform="matrix(1.4,0,0,0.5,605.055,189.307)">
            <path d="M614.173,448.819C614.173,409.707 602.832,377.953 588.864,377.953L403.262,377.953C389.293,377.953 377.953,409.707 377.953,448.819L377.953,779.528C377.953,818.64 389.293,850.394 403.262,850.394L588.864,850.394C602.832,850.394 614.173,818.64 614.173,779.528L614.173,448.819Z"/>
        </g>
        <g transform="matrix(2.2,0,0,0.5,113.717,472.772)">
            <path d="M614.173,448.819C614.173,409.707 606.956,377.953 598.067,377.953L394.059,377.953C385.17,377.953 377.953,409.707 377.953,448.819L377.953,779.528C377.953,818.64 385.17,850.394 394.059,850.394L598.067,850.394C606.956,850.394 614.173,818.64 614.173,779.528L614.173,448.819Z"/>
        </g>
        <g transform="matrix(2.2,0,0,0.5,113.717,1039.7)">
            <path d="M614.173,448.819C614.173,409.707 606.956,377.953 598.067,377.953L394.059,377.953C385.17,377.953 377.953,409.707 377.953,448.819L377.953,779.528C377.953,818.64 385.17,850.394 394.059,850.394L598.067,850.394C606.956,850.394 614.173,818.64 614.173,779.528L614.173,448.819Z"/>
        </g>
    </g>
</svg>
