<?xml version="1.0" encoding="UTF-8" standalone="no"?>
<!DOCTYPE svg PUBLIC "-//W3C//DTD SVG 1.1//EN" "http://www.w3.org/Graphics/SVG/1.1/DTD/svg11.dtd">
<svg width="100%" height="100%" viewBox="0 0 567 567" version="1.1" xmlns="http://www.w3.org/2000/svg" xmlns:xlink="http://www.w3.org/1999/xlink" xml:space="preserve" xmlns:serif="http://www.serif.com/" style="fill-rule:evenodd;clip-rule:evenodd;stroke-linejoin:round;stroke-miterlimit:2;">
    <g id="Plan-de-travail1" serif:id="Plan de travail1" transform="matrix(1,0,0,1,-1251.97,-1110.24)">
        <rect x="1251.97" y="1110.24" width="566.929" height="566.929" style="fill:none;"/>
        <g transform="matrix(1,0,0,1,473.409,0.23622)">
            <path d="M1323.63,1117.21C1324.33,1117.26 1324.51,1117.26 1325.21,1117.36C1332.51,1118.41 1338.71,1124.8 1339.43,1132.27C1339.49,1132.98 1339.49,1133.15 1339.5,1133.86L1339.5,1228.35C1339.49,1229.05 1339.49,1229.23 1339.43,1229.93C1338.7,1237.54 1332.21,1244.19 1324.42,1244.94C1323.72,1245.01 1323.54,1245 1322.84,1245.01L1275.59,1245.01C1274.89,1245 1274.71,1245.01 1274.01,1244.94C1266.39,1244.21 1259.74,1237.72 1259,1229.93C1258.93,1229.23 1258.94,1229.05 1258.92,1228.35L1258.92,1133.86C1258.94,1133.15 1258.93,1132.98 1259,1132.27C1259.73,1124.68 1266.22,1118.01 1274.01,1117.27C1274.71,1117.2 1274.89,1117.21 1275.59,1117.19L1322.84,1117.19C1323.1,1117.2 1323.36,1117.2 1323.63,1117.21Z"/>
        </g>
        <g transform="matrix(1,0,0,1,95.4567,0.23622)">
            <path d="M1607.55,1117.24C1608.64,1117.36 1608.93,1117.36 1610.01,1117.61C1617.26,1119.27 1622.68,1126.17 1622.97,1133.86L1622.97,1228.35C1622.92,1229.45 1622.94,1229.73 1622.78,1230.83C1621.61,1238.61 1614.44,1244.71 1606.3,1245.01L1370.08,1245.01C1362.03,1244.71 1354.79,1238.73 1353.6,1230.83C1353.43,1229.73 1353.45,1229.45 1353.41,1228.35L1353.41,1133.86C1353.45,1132.75 1353.43,1132.47 1353.6,1131.37C1354.77,1123.6 1361.94,1117.5 1370.08,1117.19L1606.3,1117.19C1606.71,1117.21 1607.13,1117.22 1607.55,1117.24Z"/>
        </g>
        <g transform="matrix(1,0,0,1,0.968504,0.23622)">
            <path d="M1418.29,1117.22C1419.15,1117.3 1419.37,1117.3 1420.22,1117.44C1427.2,1118.68 1433.04,1124.74 1433.88,1131.92C1433.98,1132.78 1433.96,1133 1433.99,1133.86L1433.99,1228.35C1433.96,1229.21 1433.98,1229.42 1433.88,1230.28C1433.02,1237.64 1426.77,1244.02 1419.26,1244.9C1418.4,1245 1418.18,1244.99 1417.32,1245.01L1275.59,1245.01C1274.73,1244.99 1274.51,1245 1273.66,1244.9C1266.3,1244.04 1259.91,1237.79 1259.04,1230.28C1258.94,1229.42 1258.95,1229.21 1258.92,1228.35L1258.92,1133.86C1258.95,1133 1258.94,1132.78 1259.04,1131.92C1259.9,1124.56 1266.15,1118.18 1273.66,1117.3C1274.51,1117.2 1274.73,1117.22 1275.59,1117.19L1417.32,1117.19C1417.65,1117.2 1417.97,1117.21 1418.29,1117.22Z"/>
        </g>
        <g transform="matrix(5,0,0,1,-5101.39,0.23622)">
            <path d="M1323.08,1258.97C1323.3,1259.09 1323.36,1259.1 1323.58,1259.34C1325.03,1261 1326.11,1267.9 1326.17,1275.59L1326.17,1370.08C1326.11,1378.12 1324.91,1385.37 1323.33,1386.56C1323.11,1386.73 1323.06,1386.7 1322.84,1386.75L1275.59,1386.75C1275.37,1386.7 1275.31,1386.73 1275.09,1386.56C1273.54,1385.39 1272.32,1378.22 1272.26,1370.08L1272.26,1275.59C1272.27,1274.48 1272.26,1274.2 1272.29,1273.11C1272.53,1265.33 1273.96,1259.23 1275.59,1258.92L1322.84,1258.92C1322.92,1258.94 1323,1258.95 1323.08,1258.97Z"/>
        </g>
        <g transform="matrix(1,0,0,1,0.968504,0.23622)">
            <path d="M1796.52,1258.97C1797.62,1259.09 1797.9,1259.1 1798.98,1259.34C1806.24,1261 1811.65,1267.9 1811.94,1275.59L1811.94,1370.08C1811.64,1378.12 1805.66,1385.37 1797.76,1386.56C1796.66,1386.73 1796.38,1386.7 1795.28,1386.75L1559.06,1386.75C1551.01,1386.44 1543.77,1380.47 1542.58,1372.56C1542.41,1371.47 1542.43,1371.18 1542.39,1370.08L1542.39,1275.59C1542.69,1267.54 1548.67,1260.3 1556.57,1259.11C1557.67,1258.94 1557.95,1258.96 1559.06,1258.92L1795.28,1258.92C1795.69,1258.94 1796.11,1258.95 1796.52,1258.97Z"/>
        </g>
        <g transform="matrix(1,0,0,1,0.968504,0.23622)">
            <path d="M1323.63,1400.67C1324.33,1400.73 1324.51,1400.73 1325.21,1400.83C1332.51,1401.88 1338.71,1408.26 1339.43,1415.74C1339.49,1416.44 1339.49,1416.62 1339.5,1417.32L1339.5,1511.81C1339.49,1512.52 1339.49,1512.69 1339.43,1513.39C1338.7,1521.01 1332.21,1527.66 1324.42,1528.4C1323.72,1528.47 1323.54,1528.46 1322.84,1528.48L1275.59,1528.48C1274.89,1528.46 1274.71,1528.47 1274.01,1528.4C1266.41,1527.68 1259.74,1521.18 1259,1513.39C1258.93,1512.69 1258.94,1512.52 1258.92,1511.81L1258.92,1417.32C1258.94,1416.62 1258.93,1416.44 1259,1415.74C1259.73,1408.13 1266.22,1401.48 1274.01,1400.73C1274.71,1400.66 1274.89,1400.67 1275.59,1400.66L1322.84,1400.66C1323.1,1400.66 1323.36,1400.67 1323.63,1400.67Z"/>
        </g>
        <g transform="matrix(0.75,0,0,1,449.787,0.23622)">
            <path d="M1796.57,1400.68C1800.53,1400.94 1801.17,1401.19 1802.88,1401.66C1810.56,1403.76 1816.39,1409.24 1817.35,1415.39C1817.48,1416.24 1817.46,1416.46 1817.5,1417.32L1817.5,1511.81C1817.46,1512.67 1817.48,1512.89 1817.35,1513.75C1816.2,1521.11 1807.87,1527.49 1797.86,1528.37C1796.71,1528.46 1796.42,1528.45 1795.28,1528.48L1606.3,1528.48C1605.15,1528.45 1604.86,1528.46 1603.72,1528.37C1593.9,1527.51 1585.4,1521.26 1584.23,1513.75C1584.09,1512.89 1584.11,1512.67 1584.08,1511.81L1584.08,1417.32C1584.11,1416.46 1584.09,1416.24 1584.23,1415.39C1585.37,1408.04 1593.71,1401.65 1603.72,1400.77C1604.86,1400.67 1605.15,1400.68 1606.3,1400.66L1795.28,1400.66C1795.71,1400.67 1796.14,1400.67 1796.57,1400.68Z"/>
        </g>
        <g transform="matrix(1.25,0,0,1,-341.551,0.23622)">
            <path d="M1560.05,1400.7C1566.11,1401.56 1571.34,1407.37 1572.24,1414.84C1572.37,1415.94 1572.36,1416.22 1572.39,1417.32L1572.39,1511.81C1572.36,1512.92 1572.37,1513.2 1572.24,1514.3C1571.3,1522.07 1565.57,1528.17 1559.06,1528.48L1370.08,1528.48C1363.64,1528.18 1357.85,1522.2 1356.89,1514.3C1356.76,1513.2 1356.78,1512.92 1356.75,1511.81L1356.75,1417.32C1356.99,1409.28 1361.77,1402.03 1368.09,1400.84C1368.97,1400.68 1369.19,1400.7 1370.08,1400.66L1559.06,1400.66C1559.39,1400.67 1559.72,1400.69 1560.05,1400.7Z"/>
        </g>
        <g transform="matrix(1,0,0,1,0.968504,0.23622)">
            <path d="M1513.06,1542.43C1520.62,1543.29 1527.16,1549.1 1528.29,1556.57C1528.46,1557.67 1528.44,1557.95 1528.48,1559.06L1528.48,1653.54C1528.44,1654.65 1528.46,1654.93 1528.29,1656.03C1527.12,1663.81 1519.95,1669.9 1511.81,1670.21L1275.59,1670.21C1274.48,1670.17 1274.2,1670.19 1273.11,1670.02C1265.33,1668.85 1259.23,1661.68 1258.92,1653.54L1258.92,1559.06C1258.96,1557.95 1258.94,1557.67 1259.11,1556.57C1260.28,1548.79 1267.45,1542.69 1275.59,1542.39L1511.81,1542.39C1512.23,1542.4 1512.64,1542.42 1513.06,1542.43Z"/>
        </g>
        <g transform="matrix(1,0,0,1,0.968504,0.23622)">
            <path d="M1796.52,1542.43C1797.62,1542.56 1797.9,1542.56 1798.98,1542.81C1806.24,1544.46 1811.65,1551.37 1811.94,1559.06L1811.94,1653.54C1811.9,1654.65 1811.92,1654.93 1811.76,1656.03C1810.58,1663.81 1803.42,1669.9 1795.28,1670.21L1559.06,1670.21C1557.95,1670.17 1557.67,1670.19 1556.57,1670.02C1548.79,1668.85 1542.69,1661.68 1542.39,1653.54L1542.39,1559.06C1542.43,1557.95 1542.41,1557.67 1542.58,1556.57C1543.75,1548.79 1550.91,1542.69 1559.06,1542.39L1795.28,1542.39C1795.69,1542.4 1796.11,1542.42 1796.52,1542.43Z"/>
        </g>
    </g>
</svg>
