<?xml version="1.0" encoding="UTF-8" standalone="no"?>
<!DOCTYPE svg PUBLIC "-//W3C//DTD SVG 1.1//EN" "http://www.w3.org/Graphics/SVG/1.1/DTD/svg11.dtd">
<svg width="100%" height="100%" viewBox="0 0 1701 1701" version="1.1" xmlns="http://www.w3.org/2000/svg" xmlns:xlink="http://www.w3.org/1999/xlink" xml:space="preserve" xmlns:serif="http://www.serif.com/" style="fill-rule:evenodd;clip-rule:evenodd;stroke-linejoin:round;stroke-miterlimit:2;">
    <g id="Plan-de-travail1" serif:id="Plan de travail1" transform="matrix(1,0,0,1,-425.197,-425.197)">
        <rect x="425.197" y="425.197" width="1700.79" height="1700.79" style="fill:none;"/>
        <g transform="matrix(1.24896,0,0,1.16667,-117.421,-78.5433)">
            <path d="M661.417,543.307C661.417,504.195 631.755,472.441 595.22,472.441L538.638,472.441C502.103,472.441 472.441,504.195 472.441,543.307L472.441,685.039C472.441,724.151 502.103,755.906 538.638,755.906L595.22,755.906C631.755,755.906 661.417,724.151 661.417,685.039L661.417,543.307Z"/>
        </g>
        <g transform="matrix(4,0,0,1.16667,-1417.13,346.654)">
            <path d="M661.417,543.307C661.417,504.195 652.156,472.441 640.748,472.441L493.11,472.441C481.703,472.441 472.441,504.195 472.441,543.307L472.441,685.039C472.441,724.151 481.703,755.906 493.11,755.906L640.748,755.906C652.156,755.906 661.417,724.151 661.417,685.039L661.417,543.307Z"/>
        </g>
        <g transform="matrix(4,0,0,1.16667,-1086.42,-78.5433)">
            <path d="M661.417,543.307C661.417,504.195 652.156,472.441 640.748,472.441L493.11,472.441C481.703,472.441 472.441,504.195 472.441,543.307L472.441,685.039C472.441,724.151 481.703,755.906 493.11,755.906L640.748,755.906C652.156,755.906 661.417,724.151 661.417,685.039L661.417,543.307Z"/>
        </g>
        <g transform="matrix(4,0,0,1.16667,-897.441,771.85)">
            <path d="M661.417,543.307C661.417,504.195 652.156,472.441 640.748,472.441L493.11,472.441C481.703,472.441 472.441,504.195 472.441,543.307L472.441,685.039C472.441,724.151 481.703,755.906 493.11,755.906L640.748,755.906C652.156,755.906 661.417,724.151 661.417,685.039L661.417,543.307Z"/>
        </g>
        <g transform="matrix(2.25,0,0,1.16667,590.748,-78.5433)">
            <path d="M661.417,543.307C661.417,504.195 644.952,472.441 624.672,472.441L509.186,472.441C488.906,472.441 472.441,504.195 472.441,543.307L472.441,685.039C472.441,724.151 488.906,755.906 509.186,755.906L624.672,755.906C644.952,755.906 661.417,724.151 661.417,685.039L661.417,543.307Z"/>
        </g>
        <g transform="matrix(2.25,0,0,1.16667,-590.354,771.85)">
            <path d="M661.417,543.307C661.417,504.195 644.952,472.441 624.672,472.441L509.186,472.441C488.906,472.441 472.441,504.195 472.441,543.307L472.441,685.039C472.441,724.151 488.906,755.906 509.186,755.906L624.672,755.906C644.952,755.906 661.417,724.151 661.417,685.039L661.417,543.307Z"/>
        </g>
        <g transform="matrix(4,0,0,1.16667,-566.732,346.654)">
            <path d="M661.417,543.307C661.417,504.195 652.156,472.441 640.748,472.441L493.11,472.441C481.703,472.441 472.441,504.195 472.441,543.307L472.441,685.039C472.441,724.151 481.703,755.906 493.11,755.906L640.748,755.906C652.156,755.906 661.417,724.151 661.417,685.039L661.417,543.307Z"/>
        </g>
        <g transform="matrix(1.25,0,0,1.16667,1252.17,771.85)">
            <path d="M661.417,543.307C661.417,504.195 631.78,472.441 595.276,472.441L538.583,472.441C502.078,472.441 472.441,504.195 472.441,543.307L472.441,685.039C472.441,724.151 502.078,755.906 538.583,755.906L595.276,755.906C631.78,755.906 661.417,724.151 661.417,685.039L661.417,543.307Z"/>
        </g>
        <g transform="matrix(4,0,0,1.16667,-1417.13,1197.05)">
            <path d="M661.417,543.307C661.417,504.195 652.156,472.441 640.748,472.441L493.11,472.441C481.703,472.441 472.441,504.195 472.441,543.307L472.441,685.039C472.441,724.151 481.703,755.906 493.11,755.906L640.748,755.906C652.156,755.906 661.417,724.151 661.417,685.039L661.417,543.307Z"/>
        </g>
        <g transform="matrix(4,0,0,1.16667,-566.732,1197.05)">
            <path d="M661.417,543.307C661.417,504.195 652.156,472.441 640.748,472.441L493.11,472.441C481.703,472.441 472.441,504.195 472.441,543.307L472.441,685.039C472.441,724.151 481.703,755.906 493.11,755.906L640.748,755.906C652.156,755.906 661.417,724.151 661.417,685.039L661.417,543.307Z"/>
        </g>
    </g>
</svg>
