<?xml version="1.0" encoding="UTF-8" standalone="no"?>
<!DOCTYPE svg PUBLIC "-//W3C//DTD SVG 1.1//EN" "http://www.w3.org/Graphics/SVG/1.1/DTD/svg11.dtd">
<svg width="100%" height="100%" viewBox="0 0 567 567" version="1.1" xmlns="http://www.w3.org/2000/svg" xmlns:xlink="http://www.w3.org/1999/xlink" xml:space="preserve" xmlns:serif="http://www.serif.com/" style="fill-rule:evenodd;clip-rule:evenodd;stroke-linejoin:round;stroke-miterlimit:2;">
    <g id="Plan-de-travail1" serif:id="Plan de travail1" transform="matrix(1,0,0,1,-1251.97,-1110.24)">
        <rect x="1251.97" y="1110.24" width="566.929" height="566.929" style="fill:none;"/>
        <g transform="matrix(1,0,0,1,1251.97,1110.24)">
            <path d="M24.589,560.206C23.479,560.166 23.199,560.186 22.109,560.016C14.329,558.846 8.229,551.676 7.919,543.536L7.919,23.856C7.949,22.996 7.939,22.776 8.039,21.916C8.899,14.556 15.149,8.176 22.659,7.296C23.509,7.196 23.729,7.216 24.589,7.186L544.279,7.186C544.539,7.196 544.799,7.196 545.069,7.206C545.769,7.256 545.949,7.256 546.649,7.356C553.949,8.406 560.149,14.796 560.869,22.266C560.929,22.976 560.929,23.146 560.939,23.856L560.939,543.536C560.899,544.646 560.919,544.926 560.759,546.026C559.579,553.806 552.419,559.896 544.279,560.206" style="fill:rgb(231,231,231);"/>
        </g>
    </g>
</svg>
